<mxfile host="app.diagrams.net" modified="2024-03-23T00:21:50.645Z" agent="Mozilla/5.0 (Windows NT 10.0; Win64; x64) AppleWebKit/537.36 (KHTML, like Gecko) Chrome/122.0.0.0 Safari/537.36" etag="kOAUhjpd7UU2qrNG2UOb" version="24.0.7" type="github">
  <diagram name="Page-1" id="KrgxEsroE3iNC0fFU9YE">
    <mxGraphModel dx="733" dy="398" grid="1" gridSize="10" guides="1" tooltips="1" connect="1" arrows="1" fold="1" page="1" pageScale="1" pageWidth="850" pageHeight="1100" math="0" shadow="0">
      <root>
        <mxCell id="0" />
        <mxCell id="1" parent="0" />
        <mxCell id="fMbwiTloji3WpqNqCzqb-1" value="" style="rounded=0;whiteSpace=wrap;html=1;dashed=1;fillColor=none;strokeWidth=2;" vertex="1" parent="1">
          <mxGeometry x="110" y="210" width="130" height="170" as="geometry" />
        </mxCell>
        <mxCell id="fMbwiTloji3WpqNqCzqb-2" value="Sensor Ultrasonik" style="rounded=0;whiteSpace=wrap;html=1;" vertex="1" parent="1">
          <mxGeometry x="132.5" y="230" width="85" height="90" as="geometry" />
        </mxCell>
        <mxCell id="fMbwiTloji3WpqNqCzqb-3" value="Input Sensor" style="text;html=1;align=center;verticalAlign=middle;whiteSpace=wrap;rounded=0;" vertex="1" parent="1">
          <mxGeometry x="130" y="350" width="90" height="30" as="geometry" />
        </mxCell>
        <mxCell id="fMbwiTloji3WpqNqCzqb-4" value="ESP 32" style="rounded=1;whiteSpace=wrap;html=1;" vertex="1" parent="1">
          <mxGeometry x="280" y="180" width="120" height="190" as="geometry" />
        </mxCell>
        <mxCell id="fMbwiTloji3WpqNqCzqb-5" value="" style="endArrow=classic;html=1;rounded=0;exitX=1;exitY=0.5;exitDx=0;exitDy=0;entryX=0;entryY=0.5;entryDx=0;entryDy=0;" edge="1" parent="1" source="fMbwiTloji3WpqNqCzqb-2" target="fMbwiTloji3WpqNqCzqb-4">
          <mxGeometry width="50" height="50" relative="1" as="geometry">
            <mxPoint x="400" y="280" as="sourcePoint" />
            <mxPoint x="450" y="230" as="targetPoint" />
          </mxGeometry>
        </mxCell>
        <mxCell id="fMbwiTloji3WpqNqCzqb-6" value="" style="rounded=0;whiteSpace=wrap;html=1;dashed=1;fillColor=none;strokeWidth=2;" vertex="1" parent="1">
          <mxGeometry x="475" y="160" width="130" height="230" as="geometry" />
        </mxCell>
        <mxCell id="fMbwiTloji3WpqNqCzqb-7" value="Blynk Live-Time Gauge" style="rounded=0;whiteSpace=wrap;html=1;" vertex="1" parent="1">
          <mxGeometry x="498.5" y="300" width="85" height="60" as="geometry" />
        </mxCell>
        <mxCell id="fMbwiTloji3WpqNqCzqb-8" value="Output" style="text;html=1;align=center;verticalAlign=middle;whiteSpace=wrap;rounded=0;" vertex="1" parent="1">
          <mxGeometry x="495" y="360" width="90" height="30" as="geometry" />
        </mxCell>
        <mxCell id="fMbwiTloji3WpqNqCzqb-9" value="" style="endArrow=classic;html=1;rounded=0;entryX=0.002;entryY=0.367;entryDx=0;entryDy=0;exitX=1;exitY=0.75;exitDx=0;exitDy=0;entryPerimeter=0;" edge="1" parent="1" source="fMbwiTloji3WpqNqCzqb-4" target="fMbwiTloji3WpqNqCzqb-7">
          <mxGeometry width="50" height="50" relative="1" as="geometry">
            <mxPoint x="450" y="254.71" as="sourcePoint" />
            <mxPoint x="500" y="255" as="targetPoint" />
          </mxGeometry>
        </mxCell>
        <mxCell id="fMbwiTloji3WpqNqCzqb-11" value="Lampu LED&lt;div&gt;Hijau&lt;/div&gt;" style="rounded=0;whiteSpace=wrap;html=1;" vertex="1" parent="1">
          <mxGeometry x="500" y="250" width="85" height="30" as="geometry" />
        </mxCell>
        <mxCell id="fMbwiTloji3WpqNqCzqb-13" value="" style="endArrow=classic;html=1;rounded=0;entryX=0;entryY=0.5;entryDx=0;entryDy=0;exitX=0.988;exitY=0.633;exitDx=0;exitDy=0;exitPerimeter=0;" edge="1" parent="1">
          <mxGeometry width="50" height="50" relative="1" as="geometry">
            <mxPoint x="400" y="230" as="sourcePoint" />
            <mxPoint x="500" y="230" as="targetPoint" />
          </mxGeometry>
        </mxCell>
        <mxCell id="fMbwiTloji3WpqNqCzqb-14" value="" style="endArrow=classic;html=1;rounded=0;entryX=0;entryY=0.5;entryDx=0;entryDy=0;exitX=0.988;exitY=0.633;exitDx=0;exitDy=0;exitPerimeter=0;" edge="1" parent="1">
          <mxGeometry width="50" height="50" relative="1" as="geometry">
            <mxPoint x="400" y="200" as="sourcePoint" />
            <mxPoint x="500" y="200" as="targetPoint" />
          </mxGeometry>
        </mxCell>
        <mxCell id="fMbwiTloji3WpqNqCzqb-16" value="" style="endArrow=classic;html=1;rounded=0;entryX=0;entryY=0.5;entryDx=0;entryDy=0;exitX=0.988;exitY=0.633;exitDx=0;exitDy=0;exitPerimeter=0;" edge="1" parent="1">
          <mxGeometry width="50" height="50" relative="1" as="geometry">
            <mxPoint x="400" y="264.76" as="sourcePoint" />
            <mxPoint x="500" y="264.76" as="targetPoint" />
          </mxGeometry>
        </mxCell>
        <mxCell id="fMbwiTloji3WpqNqCzqb-17" value="Lampu LED&lt;div&gt;Merah&lt;/div&gt;" style="rounded=0;whiteSpace=wrap;html=1;" vertex="1" parent="1">
          <mxGeometry x="500" y="182" width="85" height="30" as="geometry" />
        </mxCell>
        <mxCell id="fMbwiTloji3WpqNqCzqb-18" value="Lampu LED&lt;div&gt;Kuning&lt;/div&gt;" style="rounded=0;whiteSpace=wrap;html=1;" vertex="1" parent="1">
          <mxGeometry x="500" y="216" width="85" height="30" as="geometry" />
        </mxCell>
        <mxCell id="fMbwiTloji3WpqNqCzqb-19" value="" style="rounded=0;whiteSpace=wrap;html=1;dashed=1;fillColor=none;strokeWidth=2;" vertex="1" parent="1">
          <mxGeometry x="260" y="160" width="160" height="260" as="geometry" />
        </mxCell>
        <mxCell id="fMbwiTloji3WpqNqCzqb-20" value="Proses" style="text;html=1;align=center;verticalAlign=middle;whiteSpace=wrap;rounded=0;" vertex="1" parent="1">
          <mxGeometry x="295" y="390" width="90" height="30" as="geometry" />
        </mxCell>
        <mxCell id="fMbwiTloji3WpqNqCzqb-21" value="" style="endArrow=none;html=1;rounded=0;entryX=0.5;entryY=1;entryDx=0;entryDy=0;exitX=0.5;exitY=0;exitDx=0;exitDy=0;" edge="1" parent="1" source="fMbwiTloji3WpqNqCzqb-18" target="fMbwiTloji3WpqNqCzqb-17">
          <mxGeometry width="50" height="50" relative="1" as="geometry">
            <mxPoint x="450" y="250" as="sourcePoint" />
            <mxPoint x="500" y="200" as="targetPoint" />
          </mxGeometry>
        </mxCell>
        <mxCell id="fMbwiTloji3WpqNqCzqb-22" value="" style="endArrow=none;html=1;rounded=0;entryX=0.5;entryY=1;entryDx=0;entryDy=0;exitX=0.5;exitY=0;exitDx=0;exitDy=0;" edge="1" parent="1">
          <mxGeometry width="50" height="50" relative="1" as="geometry">
            <mxPoint x="542.46" y="250" as="sourcePoint" />
            <mxPoint x="542.46" y="246" as="targetPoint" />
          </mxGeometry>
        </mxCell>
        <mxCell id="fMbwiTloji3WpqNqCzqb-23" value="" style="endArrow=none;html=1;rounded=0;entryX=0.5;entryY=1;entryDx=0;entryDy=0;exitX=0.5;exitY=0;exitDx=0;exitDy=0;" edge="1" parent="1" source="fMbwiTloji3WpqNqCzqb-7">
          <mxGeometry width="50" height="50" relative="1" as="geometry">
            <mxPoint x="540.96" y="284" as="sourcePoint" />
            <mxPoint x="540.96" y="280" as="targetPoint" />
          </mxGeometry>
        </mxCell>
      </root>
    </mxGraphModel>
  </diagram>
</mxfile>
